<?xml version="1.0" encoding="utf-8"?>
<svg version="1.1" id="Layer_1" xmlns="http://www.w3.org/2000/svg" xmlns:xlink="http://www.w3.org/1999/xlink" x="0px" y="0px"
	 viewBox="0 0 517.5030518 88.5851364" enable-background="new 0 0 517.5030518 88.5851364" xml:space="preserve">
<g>
	<path fill="#D90D0D" d="M75.518486,25.5441418H13.4344873l-2.6047993,3.6357441h64.6009521h0.0008316l1.5750961-2.3081856
		L75.518486,25.5441418z M68.3689194,19.1658955H18.0031872l-2.6047993,3.6357422h57.0459404L68.3689194,19.1658955z
		 M1.6936972,41.9370842h65.0324173l2.4810104-3.635788H4.2972121L1.6936972,41.9370842z M6.2623553,35.5580902h64.8167267
		l2.4805145-3.6350384H8.8645449L6.2623553,35.5580902z"/>
	<path fill="#0056A9" d="M73.3304443,63.8234634h-5.9590454l-3.4492188,14.7559814h-4.1191406l3.4492188-14.7559814h-5.9589844
		l0.7401733-3.1688843h16.0372925L73.3304443,63.8234634z M82.1351929,74.6847916
		c-1.7637329,3.1963501-4.921936,4.2432251-7.421936,4.2432251c-4.1172485,0-6.8535767-1.7958984-5.578125-7.2647095
		c0.375-1.5966187,2.1738281-6.7158203,8.5723267-6.7158203c2.8847046,0,6.5761108,1.25,5.1582031,7.3145142l-0.1445923,0.625
		H72.6937256c-0.1229858,0.9990234-0.4276733,3.2471313,2.6758423,3.2471313c1.0702515,0,2.2871094-0.5010376,2.8085938-1.4493408
		H82.1351929z M73.3363037,70.6144791h5.9609375c0.281311-2.1473999-1.078064-2.7958984-2.3143921-2.7958984
		C75.1703491,67.8185806,73.96521,68.8674088,73.3363037,70.6144791z M99.3500366,65.2970963h-4.5292358l-3.3222656,3.8692017
		l-1.5684204-3.8692017h-4.6660156l3.2539062,6.5166016l-6.5527344,6.7657471h4.640625l3.4609375-3.9932251l1.5917969,3.9932251
		h4.7520142l-3.3867188-6.7657471L99.3500366,65.2970963z M112.6763306,68.79319l-1.6797485,7.1905518
		c-0.3690796,1.5722046-0.0664062,1.921814,0.3672485,2.071167l-0.1230469,0.5245361h-4.1464844
		c-0.0742188-0.6240845-0.0820312-0.8243408,0.0116577-1.5733032c-1.0741577,0.8242188-2.5643921,1.921875-5.1738281,1.921875
		c-2.1991577,0-4.1856079-1.1231079-3.546875-3.8690796c0.609375-2.5957031,2.7324219-3.9180298,5.25-4.2432251l3.5723267-0.4746094
		c0.6190796-0.0751953,1.4160156-0.2998047,1.5897827-1.0488281c0.3457642-1.4736938-1.1757812-1.5479126-2.1640015-1.5479126
		c-1.9238892,0-2.5020142,1.0723267-2.7949829,1.8477173h-3.7050171c1.3886108-4.0703735,4.6268921-4.6445923,7.6210327-4.6445923
		C109.8129883,64.9474869,113.4418945,65.5217056,112.6763306,68.79319z M108.1391602,72.112587
		c-0.4511719,0.2754517-1.1347656,0.4990234-2.781189,0.7236328c-1.4785767,0.2255859-2.7363892,0.5507812-3.0723267,1.9990234
		c-0.2871094,1.2216797,0.6660156,1.5966797,1.4102173,1.5966797c1.703125,0,3.6660156-0.9979858,4.046814-2.6221313
		L108.1391602,72.112587z M122.4205322,64.9474869c-4.5606079,0-6.4902954,2.4960938-6.9453735,4.4434204
		c-1.1621704,4.968689,8.2930298,3.2977905,7.7714844,5.5176392c-0.1151733,0.5008545-0.7871094,1.3729858-2.7617188,1.3729858
		c-2.4179688,0-2.9940796-0.8231812-2.7324219-1.9473267h-3.953064c-0.718811,3.546936,2.6328125,4.593811,5.9550171,4.593811
		c2.2774048,0,6.5625-0.6981812,7.468811-4.5684204c1.1426392-4.8925171-8.359436-3.3701172-7.8672485-5.4667969
		c0.1328125-0.5742188,0.5762329-1.2988281,2.6621704-1.2988281c2.0898438,0,2.2069702,0.9003906,2.1737671,1.7481079h3.7637329
		C128.5299072,65.5969009,125.2759399,64.9474869,122.4205322,64.9474869z M155.7838745,69.1926041
		c-0.8983765,3.8457031-3.8690796,9.3868408-10.3807983,9.3868408h-8.5391846l4.1895142-17.9248657h8.7051392
		C156.4069824,60.6545792,156.5769043,65.7961807,155.7838745,69.1926041z M148.322937,63.7502823h-3.9550781l-2.7441406,11.7324219
		h4.0098267c3.3496094,0,5.1953125-3.069397,5.8847656-6.015625
		C152.7526855,64.1740494,150.0788574,63.7502823,148.322937,63.7502823z M165.8406372,74.6847916h3.953125
		c-1.7637329,3.1963501-4.9180298,4.2432251-7.4180298,4.2432251c-4.1171265,0-6.8554077-1.7958984-5.578125-7.2647095
		c0.3710938-1.5966187,2.1738281-6.7158203,8.5742188-6.7158203c2.8828125,0,6.5723267,1.25,5.1543579,7.3145142l-0.1465454,0.625
		h-10.0252686c-0.1192627,0.9990234-0.4278564,3.2471313,2.6756592,3.2471313
		C164.1003418,76.1341324,165.3152466,75.6330948,165.8406372,74.6847916z M160.9968262,70.6144791h5.9590454
		c0.2851562-2.1473999-1.078125-2.7958984-2.3104858-2.7958984
		C162.8328247,67.8185806,161.6238403,68.8674088,160.9968262,70.6144791z M187.2254639,71.7892838
		c-0.8535156,3.6446533-3.4824219,7.1387329-7.8222656,7.1387329c-2.6914062,0-3.343811-1.3231812-3.640625-2.0458984h-0.0567017
		l-1.6014404,6.8652344h-3.8477783l4.3145142-18.4502563h3.6796265l-0.4472046,1.9229126h0.0508423
		c0.9627686-1.0498047,2.3202515-2.272522,4.9002686-2.272522
		C185.9676514,64.9474869,188.2977295,67.1955948,187.2254639,71.7892838z M180.8954468,67.9689713
		c-2.6348267,0-3.7696533,2.1465454-4.2676392,4.2686157c-0.4590454,1.9726562,0.0409546,3.8193359,2.484375,3.8193359
		c2.4726562,0,3.7324219-2.4443359,4.0996094-4.0195312C183.7020264,69.9416885,183.3406982,67.9689713,180.8954468,67.9689713z
		 M202.3994141,68.79319l-1.6817017,7.1905518c-0.3691406,1.5722046-0.0664062,1.921814,0.3652954,2.071167l-0.1231079,0.5245361
		h-4.1465454c-0.0721436-0.6240845-0.0819702-0.8243408,0.0098267-1.5733032
		c-1.0684204,0.8242188-2.5643921,1.921875-5.1699219,1.921875c-2.1992188,0-4.1875-1.1231079-3.5449219-3.8690796
		c0.6054077-2.5957031,2.7304077-3.9180298,5.2480469-4.2432251l3.5703125-0.4746094
		c0.625-0.0751953,1.4179688-0.2998047,1.5917969-1.0488281c0.3457031-1.4736938-1.1757812-1.5479126-2.1660156-1.5479126
		c-1.921936,0-2.5020142,1.0723267-2.7910156,1.8477173h-3.7109985c1.3925781-4.0703735,4.6290283-4.6445923,7.6231079-4.6445923
		C199.5341187,64.9474869,203.1611328,65.5217056,202.3994141,68.79319z M197.8563843,72.112587
		c-0.4473267,0.2754517-1.1289062,0.4990234-2.7772827,0.7236328c-1.4786377,0.2255859-2.734436,0.5507812-3.0743408,1.9990234
		c-0.2871094,1.2216797,0.6699829,1.5966797,1.4122314,1.5966797c1.703064,0,3.6660156-0.9979858,4.0429077-2.6221313
		L197.8563843,72.112587z M209.7627563,67.5939713h-0.0546875l0.5390015-2.296875h-3.6816406l-3.1055298,13.2823486h3.843811
		l1.6191406-6.9161377c0.3417969-1.4725952,1.2910156-3.1689453,4.2832031-3.1689453c0.3574219,0,0.7675781,0,1.0878906,0.0488281
		l0.828125-3.546814c-0.2440796-0.0244751-0.484314-0.0488892-0.7304077-0.0488892
		C212.0576782,64.9474869,210.8759155,66.246376,209.7627563,67.5939713z M219.8115845,75.0091324l1.6875-7.2149658h2.3887329
		l0.5838623-2.4970703h-2.390564l0.8417969-3.5957642h-3.84375l-0.8417969,3.5957642h-1.9785156l-0.5839844,2.4970703h1.9785156
		l-1.8867188,8.0635376c-0.4003906,1.7226562-0.0645142,2.8711548,3.2578125,2.8711548h0.4941406
		c0.6015625,0,1.2148438-0.0244141,1.8241577-0.0489502l0.6172485-2.6473999
		c-0.2773438,0.0244141-0.5605469,0.0508423-0.8066406,0.0508423
		C219.5869751,76.0833511,219.631897,75.7835464,219.8115845,75.0091324z M242.7608643,64.9474869
		c-2.3339844,0-3.7518921,1.4736938-4.3964844,2.1220703c-0.656189-1.421875-1.4551392-2.1220703-3.5682983-2.1220703
		c-2.5821533,0-3.984436,1.4248047-4.6836548,2.296875h-0.0546875l0.4569702-1.9472656h-3.6815796l-3.1055298,13.2823486h3.843811
		l1.8925171-8.0889282c0.3359985-1.4492188,1.1835938-2.5977173,2.9942017-2.5977173
		c2.3085938,0,1.9414062,1.5742798,1.6797485,2.6953735l-1.8711548,7.991272h3.8476562l1.8613281-7.9649658
		c0.3671875-1.5731812,1.3203735-2.7216797,3.2442017-2.7216797c1.125,0,1.9354858,0.6503906,1.4765625,2.6221313
		l-1.8867798,8.0645142h3.843811l2.1464844-9.1885376C247.4835815,66.4709854,245.6124878,64.9474869,242.7608643,64.9474869z
		 M262.3039551,72.262001l-0.1445923,0.625h-10.0253296c-0.1231079,0.9990234-0.4277954,3.2471313,2.6757202,3.2471313
		c1.0703125,0,2.2852173-0.5010376,2.8106079-1.4493408h3.953125c-1.7636719,3.1963501-4.9180298,4.2432251-7.4180298,4.2432251
		c-4.1211548,0-6.8574219-1.7958984-5.5800171-7.2647095c0.3729858-1.5966187,2.1756592-6.7158203,8.5742188-6.7158203
		C260.0343628,64.9474869,263.723877,66.1974869,262.3039551,72.262001z M256.4230347,67.8185806
		c-1.8143921,0-3.0194702,1.0488281-3.6483765,2.7958984h5.9608765
		C259.0168457,68.4670792,257.6574707,67.8185806,256.4230347,67.8185806z M274.6438599,64.9474869
		c-2.7754517,0-4.2246704,1.4981079-4.9316406,2.296875h-0.0546875l0.4550781-1.9472656h-3.6796875l-3.1055298,13.2823486h3.843811
		l1.7792969-7.6153564c0.4746094-2.0214844,2.0371094-3.0712891,3.7421265-3.0712891
		c2.4415283,0,2.1132812,1.6484985,1.8867798,2.6221313l-1.8867798,8.0645142h3.843811l2.1484375-9.1885376
		C279.3684692,66.4709854,277.4993286,64.9474869,274.6438599,64.9474869z M287.7611084,61.7013321h-3.84375l-0.843811,3.5957642
		h-1.9765625l-0.5839233,2.4970703h1.9785156l-1.8867188,8.0635376c-0.4024048,1.7226562-0.0645142,2.8711548,3.2578125,2.8711548
		h0.4940796c0.6035156,0,1.2149048-0.0244141,1.8242188-0.0489502l0.6171875-2.6473999
		c-0.281189,0.0244141-0.5604858,0.0508423-0.8065796,0.0508423c-1.5664062,0-1.5234985-0.2998047-1.3417969-1.0742188
		l1.6875-7.2149658h2.3886108l0.5820923-2.4970703h-2.3886719L287.7611084,61.7013321z M311.8120117,71.9397354
		c-1.1210938,4.7929688-5.1758423,6.9882812-9.1016846,6.9882812c-3.9296875,0-6.9570312-2.1953125-5.8358765-6.9882812
		c1.1190796-4.7949219,5.1757812-6.9922485,9.1035156-6.9922485
		C309.9077148,64.9474869,312.9331055,67.1448135,311.8120117,71.9397354z M305.2884521,67.8927994
		c-2.9647827,0-4.0625,2.3457031-4.4589233,4.046936c-0.3964844,1.6962891-0.3964844,4.0440063,2.5664673,4.0440063
		c2.9667969,0,4.0664062-2.3477173,4.4628906-4.0440063C308.2553101,70.2385025,308.2553101,67.8927994,305.2884521,67.8927994z
		 M316.8569336,64.2228775l-0.25,1.0742188h-2.1152344l-0.5820923,2.4970703h2.1132812l-2.5194702,10.7852783h3.843689
		l2.5215454-10.7852783h2.4981079l0.5839844-2.4970703h-2.5l0.1229858-0.5244141
		c0.2578125-1.0975952,0.3710938-1.4717407,1.6895142-1.4717407h1.0722046l0.6582031-2.821167
		c-0.3222046-0.0245361-0.8378906-0.0508423-1.9647827-0.0508423
		C319.3921509,60.4289322,317.4995117,61.4777603,316.8569336,64.2228775z M348.3961792,60.6545792h-16.0391846
		l-0.7421875,3.1688843h5.9609985l-3.4512329,14.7559814h4.1211548l3.4492188-14.7559814h5.9609375L348.3961792,60.6545792z
		 M355.1794434,64.996376c-0.2422485-0.0244751-0.4824219-0.0488892-0.7285156-0.0488892
		c-2.3359985,0-3.5176392,1.2988892-4.6309204,2.6464844h-0.0546875l0.5390625-2.296875h-3.6797485l-3.1074219,13.2823486h3.8457642
		l1.6152344-6.9161377c0.3476562-1.4725952,1.2909546-3.1689453,4.2852173-3.1689453c0.3573608,0,0.7674561,0,1.0877686,0.0488281
		L355.1794434,64.996376z M368.2966919,68.79319l-1.6817017,7.1905518c-0.3652344,1.5722046-0.0625,1.921814,0.3692017,2.071167
		l-0.1231079,0.5245361h-4.1484375c-0.0722656-0.6240845-0.0820923-0.8243408,0.0117188-1.5733032
		c-1.0723267,0.8242188-2.5625,1.921875-5.1738281,1.921875c-2.1953125,0-4.1856079-1.1231079-3.5430298-3.8690796
		c0.6074219-2.5957031,2.7285156-3.9180298,5.25-4.2432251l3.5703735-0.4746094
		c0.6210938-0.0751953,1.4159546-0.2998047,1.5899048-1.0488281c0.3457031-1.4736938-1.1739502-1.5479126-2.1641235-1.5479126
		c-1.921936,0-2.5020142,1.0723267-2.7949219,1.8477173h-3.7070923c1.3925781-4.0703735,4.6289062-4.6445923,7.6231079-4.6445923
		C365.4333496,64.9474869,369.0622559,65.5217056,368.2966919,68.79319z M363.7575684,72.112587
		c-0.4453125,0.2754517-1.1309204,0.4990234-2.7773438,0.7236328c-1.4804688,0.2255859-2.7382812,0.5507812-3.0761719,1.9990234
		c-0.2852173,1.2216797,0.671875,1.5966797,1.4140015,1.5966797c1.703186,0,3.6660767-0.9979858,4.0430298-2.6221313
		L363.7575684,72.112587z M380.7028809,64.9474869c-2.7734375,0-4.2226562,1.4981079-4.9296875,2.296875h-0.0546875
		l0.453125-1.9472656h-3.6777344l-3.1054077,13.2823486h3.843689l1.78125-7.6153564
		c0.4726562-2.0214844,2.0371094-3.0712891,3.7402344-3.0712891c2.4414062,0,2.1113281,1.6484985,1.8828125,2.6221313
		l-1.8828125,8.0645142h3.84375l2.1464844-9.1885376C385.4274902,66.4709854,383.5603027,64.9474869,380.7028809,64.9474869z
		 M391.1502686,68.8927994c0.1346436-0.5742188,0.578125-1.2988281,2.6639404-1.2988281
		c2.0899658,0,2.2091064,0.9003906,2.1740723,1.7481079h3.765625c0.5701904-3.7451782-2.6837158-4.3945923-5.5411377-4.3945923
		c-4.5546875,0-6.484375,2.4960938-6.9414062,4.4434204c-1.1621094,4.968689,8.2928467,3.2977905,7.7734375,5.5176392
		c-0.1171875,0.5008545-0.7871094,1.3729858-2.7637939,1.3729858c-2.4178467,0-2.9940186-0.8231812-2.7324219-1.9473267h-3.9530029
		c-0.7207031,3.546936,2.6328125,4.593811,5.9550781,4.593811c2.2794189,0,6.5626221-0.6981812,7.4669189-4.5684204
		C400.1600342,69.4670792,390.6619873,70.9894791,391.1502686,68.8927994z M416.453125,71.7892838
		c-0.8515625,3.6446533-3.4824219,7.1387329-7.8203125,7.1387329c-2.6914062,0-3.3417969-1.3231812-3.640625-2.0458984H404.9375
		l-1.6074219,6.8652344h-3.8438721l4.3145752-18.4502563h3.6796875l-0.4472656,1.9229126h0.0546875
		c0.9570312-1.0498047,2.3144531-2.272522,4.8964844-2.272522C415.1972656,64.9474869,417.5273438,67.1955948,416.453125,71.7892838
		z M410.1230469,67.9689713c-2.6367188,0-3.7695312,2.1465454-4.265625,4.2686157
		c-0.4609375,1.9726562,0.0408936,3.8193359,2.484375,3.8193359c2.4726562,0,3.7324219-2.4443359,4.0996094-4.0195312
		C412.9296875,69.9416885,412.5664062,67.9689713,410.1230469,67.9689713z M433.1425781,71.9397354
		c-1.1210938,4.7929688-5.1757812,6.9882812-9.1054688,6.9882812c-3.9257812,0-6.953125-2.1953125-5.8320312-6.9882812
		c1.1191406-4.7949219,5.1757812-6.9922485,9.1035156-6.9922485
		C431.234375,64.9474869,434.2637939,67.1448135,433.1425781,71.9397354z M426.6191406,67.8927994
		c-2.9667969,0-4.0644531,2.3457031-4.4609375,4.046936c-0.3984375,1.6962891-0.3964844,4.0440063,2.5683594,4.0440063
		c2.9667969,0,4.0625-2.3477173,4.4628906-4.0440063C429.5859375,70.2385025,429.5859375,67.8927994,426.6191406,67.8927994z
		 M439.9552002,67.5939713h-0.0546875l0.5350342-2.296875h-3.6796875l-3.1074219,13.2823486h3.8457031l1.6171875-6.9161377
		c0.3457031-1.4725952,1.2910156-3.1689453,4.2852783-3.1689453c0.3553467,0,0.7695312,0,1.0859375,0.0488281l0.8280029-3.546814
		c-0.2401123-0.0244751-0.4803467-0.0488892-0.7303467-0.0488892
		C442.2480469,64.9474869,441.0644531,66.246376,439.9552002,67.5939713z M450.0001221,75.0091324l1.6875-7.2149658h2.390625
		l0.5820312-2.4970703h-2.390625l0.8417969-3.5957642h-3.8436279l-0.8399658,3.5957642h-1.9785156l-0.5841064,2.4970703h1.9785156
		l-1.8846436,8.0635376c-0.4042969,1.7226562-0.0683594,2.8711548,3.2539062,2.8711548h0.4941406
		c0.6054688,0,1.2149658-0.0244141,1.8242188-0.0489502l0.6192627-2.6473999
		c-0.2792969,0.0244141-0.5606689,0.0508423-0.8067627,0.0508423
		C449.7794189,76.0833511,449.8204346,75.7835464,450.0001221,75.0091324z M468.0686035,68.79319l-1.6777344,7.1905518
		c-0.3691406,1.5722046-0.0683594,1.921814,0.3632812,2.071167l-0.1230469,0.5245361h-4.1445312
		c-0.0742188-0.6240845-0.0820312-0.8243408,0.0097656-1.5733032c-1.0722656,0.8242188-2.5645752,1.921875-5.1738281,1.921875
		c-2.1954346,0-4.1856689-1.1231079-3.5429688-3.8690796c0.6072998-2.5957031,2.7285156-3.9180298,5.25-4.2432251
		l3.5682373-0.4746094c0.6231689-0.0751953,1.4161377-0.2998047,1.5919189-1.0488281
		c0.34375-1.4736938-1.1757812-1.5479126-2.1640625-1.5479126c-1.9239502,0-2.5039062,1.0723267-2.7929688,1.8477173h-3.7091064
		c1.3927002-4.0703735,4.6289062-4.6445923,7.6231689-4.6445923
		C465.2072754,64.9474869,468.8342285,65.5217056,468.0686035,68.79319z M463.529541,72.112587
		c-0.4472656,0.2754517-1.1308594,0.4990234-2.7774658,0.7236328c-1.4785156,0.2255859-2.7362061,0.5507812-3.0760498,1.9990234
		c-0.2871094,1.2216797,0.6699219,1.5966797,1.4139404,1.5966797c1.7012939,0,3.6641846-0.9979858,4.0430908-2.6221313
		L463.529541,72.112587z M474.3068848,75.0091324l1.6875-7.2149658h2.3886719l0.5820312-2.4970703h-2.3886719l0.8398438-3.5957642
		h-3.8457031l-0.8398438,3.5957642h-1.9765625l-0.5839844,2.4970703h1.9765625l-1.8847656,8.0635376
		c-0.4023438,1.7226562-0.0683594,2.8711548,3.2578125,2.8711548h0.4921875c0.6054688,0,1.2167969-0.0244141,1.8222656-0.0489502
		l0.6210938-2.6473999c-0.2792969,0.0244141-0.5605469,0.0508423-0.8085938,0.0508423
		C474.0822754,76.0833511,474.123291,75.7835464,474.3068848,75.0091324z M482.592041,60.4797745l-0.7597656,3.2451172h3.8457031
		l0.7578125-3.2451172H482.592041z M478.3596191,78.5794449h3.84375l3.1054688-13.2823486h-3.84375L478.3596191,78.5794449z
		 M501.4689941,71.9397354c-1.1210938,4.7929688-5.1756592,6.9882812-9.1053467,6.9882812
		c-3.9259033,0-6.9532471-2.1953125-5.8341064-6.9882812c1.1210938-4.7949219,5.1777344-6.9922485,9.1055908-6.9922485
		C499.560791,64.9474869,502.59021,67.1448135,501.4689941,71.9397354z M494.9455566,67.8927994
		c-2.9647217,0-4.0625,2.3457031-4.4589844,4.046936c-0.3964844,1.6962891-0.3964844,4.0440063,2.5664062,4.0440063
		c2.9667969,0,4.0664062-2.3477173,4.4628906-4.0440063C497.9124756,70.2385025,497.9124756,67.8927994,494.9455566,67.8927994z
		 M513.3208008,64.9474869c-2.7734375,0-4.2227783,1.4981079-4.9298096,2.296875h-0.0585938l0.4570312-1.9472656h-3.6795654
		l-3.107666,13.2823486h3.8477783l1.7773438-7.6153564c0.4726562-2.0214844,2.0371094-3.0712891,3.7403564-3.0712891
		c2.4453125,0,2.1152344,1.6484985,1.8867188,2.6221313l-1.8867188,8.0645142h3.8457031l2.1484375-9.1885376
		C518.0454102,66.4709854,516.1762695,64.9474869,513.3208008,64.9474869z M-0.0000018,88.5851212h24.1993408l27.9960346-42.5759888
		H27.9959698L-0.0000018,88.5851212z M118.4212036,17.1417618h1.0673218v-3.9559317h1.4547119v-0.8972168h-3.9767456v0.8972168
		h1.4547119V17.1417618z M122.4985962,13.7364283h0.013916l1.1891479,3.4053335h0.822998l1.189209-3.4394522h0.013916v3.4394522
		h0.9991455v-4.8531485h-1.5023804l-1.0739746,3.3374634h-0.013855l-1.1348877-3.3374634h-1.5024414v4.8531485h0.9992065V13.7364283
		z M84.5932007,33.3572769L96.447876,43.5493546V26.8716812l18.0177612-9.7299194H95.4997559V-0.0000222L83.1709595,17.1417618
		H66.0999756l10.9066162,9.7299194L65.6259155,43.5493546L84.5932007,33.3572769z"/>
</g>
</svg>
