<?xml version="1.0" encoding="utf-8"?>
<svg version="1.1" id="Layer_1" xmlns="http://www.w3.org/2000/svg" xmlns:xlink="http://www.w3.org/1999/xlink" x="0px" y="0px"
	 viewBox="0 0 186.7675018 131.0410004" enable-background="new 0 0 186.7675018 131.0410004" xml:space="preserve">
<g>
	<path fill="#0056A9" d="M41.2586708,67.907486h35.6636696l-41.2589226,62.746109H-0.0002524L41.2586708,67.907486
		L41.2586708,67.907486z M88.3159027,84.0873032h3.4893646l0.431366-2.0414124h-9.3852997l-0.4312668,2.0414124h3.4854889
		l-2.0159302,9.4985199h2.4102249L88.3159027,84.0873032z M94.6116867,91.0779724
		c-0.3063583,0.6108246-1.0167084,0.9338684-1.643219,0.9338684c-1.8169861,0-1.639328-1.4481735-1.5671844-2.0901718h5.866539
		l0.0839386-0.4020844c0.8314743-3.9051666-1.3270721-4.7092438-3.0171585-4.7092438
		c-3.743187,0-4.7970657,3.294342-5.0156021,4.3228378c-0.7455139,3.5197678,0.8547363,4.6779633,3.2649612,4.6779633
		c1.463768,0,3.3119278-0.6751709,4.3423309-2.7331696H94.6116867z M91.7779922,88.4589081
		c0.3669357-1.1251297,1.0733871-1.8003998,2.1331406-1.8003998c0.7220383,0,1.5163193,0.4186707,1.3524475,1.8003998H91.7779922z
		 M102.9412155,89.229805l3.7022171-4.1950378h-2.6503372l-1.9418716,2.4922638l-0.9172058-2.4922638H98.401741l1.9067154,4.1950378
		l-3.8328934,4.3560181h2.7126694l2.0277176-2.5713043l0.9309769,2.5713043h2.7810669L102.9412155,89.229805z
		 M114.0926437,87.2850189c0.4469528-2.104866-1.6744766-2.474678-2.8805389-2.474678
		c-1.7544556,0-3.6475906,0.369812-4.4613571,2.9898758h2.1701355c0.1678696-0.4986115,0.5093842-1.189476,1.6335068-1.189476
		c0.5796509,0,1.4695587,0.0477676,1.2666168,0.9953308c-0.0995178,0.4830246-0.5640564,0.6284103-0.928978,0.6752701
		l-2.0901718,0.306366c-1.4754562,0.2088394-2.7185898,1.0596771-3.0738144,2.7312775
		c-0.3727112,1.7681198,0.7904892,2.492157,2.0765915,2.492157c1.5281067,0,2.4004288-0.7083435,3.0288391-1.237236
		c-0.054657,0.4820251-0.0507584,0.6098251-0.0057907,1.0119171h2.4258347l0.0702209-0.3376389
		c-0.2498016-0.0966263-0.4273682-0.3210526-0.2146301-1.3349609L114.0926437,87.2850189z M111.2042847,90.5159073
		c-0.2205276,1.0450897-1.371933,1.6871872-2.3653336,1.6871872c-0.4351883,0-0.9953537-0.2401123-0.829483-1.0276031
		c0.2010498-0.9327698,0.9348755-1.1416092,1.8013992-1.2860947c0.9621582-0.1443939,1.3641434-0.2887802,1.6256409-0.4664383
		L111.2042847,90.5159073z M122.6816635,87.6392441c0.3337402-2.4102249-1.5670776-2.8289032-3.2396774-2.8289032
		c-2.6697311,0-3.7977524,1.6071548-4.0632477,2.8610764c-0.6790695,3.1977158,4.8537292,2.1204529,4.549263,3.5519409
		c-0.0683441,0.3210526-0.46064,0.8841095-1.6198349,0.8841095c-1.413002,0-1.7506409-0.5308838-1.5964584-1.254921h-2.3164978
		c-0.4176788,2.2834244,1.5436935,2.9585953,3.4874878,2.9585953c1.3348618,0,3.8407135-0.4498444,4.3676987-2.942009
		c0.6693802-3.1498489-4.8906937-2.1682129-4.6038208-3.5187683c0.0799408-0.3708115,0.3395386-0.8362503,1.5613098-0.8362503
		c1.2197342,0,1.2918777,0.577652,1.2723923,1.1251297H122.6816635z M62.1076584,110.6496506h5.0000153
		c3.8095398,0,5.5464859-3.5675201,6.0714798-6.0421982c0.4645386-2.1857986,0.3630142-5.4966278-3.524559-5.4966278h-5.0956421
		L62.1076584,110.6496506z M66.4988708,101.1033783h2.3145752c1.0303955,0,2.5956039,0.2731857,1.8715439,3.6797333
		c-0.4039841,1.8969269-1.483223,3.8739929-3.4426193,3.8739929h-2.3477783L66.4988708,101.1033783z M78.7158508,108.1427994
		c-0.306366,0.6108246-1.0166931,0.9318771-1.6452026,0.9318771c-1.8150101,0-1.637352-1.4460754-1.5652084-2.0891724h5.8646469
		l0.0878296-0.4010925c0.8274536-3.9060593-1.332962-4.709137-3.0191574-4.709137
		c-3.7451859,0-4.7970657,3.2942429-5.0155945,4.3237381c-0.7494202,3.5187683,0.8547363,4.6750641,3.2649612,4.6750641
		c1.4637604,0,3.3119202-0.6752701,4.3404465-2.7312775H78.7158508z M75.8782501,105.5227432
		c0.3688126-1.1241302,1.0753708-1.7993011,2.1350403-1.7993011c0.7240601,0,1.5183258,0.417572,1.3544464,1.7993011H75.8782501z
		 M85.6245728,102.1006012h-2.152626l-2.5214386,11.8755646h2.2482529l0.9406662-4.4184647h0.0292816
		c0.17556,0.4654388,0.5581665,1.3163757,2.1311417,1.3163757c2.5409241,0,4.0788269-2.2492523,4.5765457-4.5960236
		c0.6284103-2.9577026-0.7358322-4.4027786-2.6171722-4.4027786c-1.5105209,0-2.3029099,0.7873917-2.8668671,1.4616623h-0.0292816
		L85.6245728,102.1006012z M84.674118,106.5678253c0.2927704-1.3660355,0.9543533-2.748764,2.4980545-2.748764
		c1.4285889,0,1.6413498,1.269516,1.3544464,2.6199646c-0.2127075,1.0129166-0.9504623,2.5878906-2.3965378,2.5878906
		C84.6994934,109.0269165,84.406723,107.8373413,84.674118,106.5678253z M99.4009628,104.3498535
		c0.4488525-2.1057663-1.6744995-2.4745789-2.8805618-2.4745789c-1.7506332,0-3.6436615,0.3688126-4.4574051,2.9888763h2.16819
		c0.1697693-0.4977112,0.5112991-1.1895752,1.6334305-1.1895752c0.5796432,0,1.467659,0.0488663,1.2686081,0.9963226
		c-0.1034164,0.4830246-0.5659561,0.6274185-0.9309692,0.6742783l-2.0901794,0.306366
		c-1.4753494,0.2098312-2.7165604,1.0607681-3.0718079,2.7332687c-0.3747101,1.7672272,0.7903824,2.4892654,2.0764847,2.4892654
		c1.5242386,0,2.3985596-0.7064514,3.026947-1.2373352c-0.0545578,0.4830246-0.0506668,0.6109238-0.0077972,1.0129089h2.4259109
		l0.0721512-0.3376312c-0.251709-0.0956268-0.4293671-0.3210526-0.2146378-1.3329697L99.4009628,104.3498535z
		 M96.5165329,107.5807419c-0.2225494,1.0440826-1.3720627,1.6871872-2.3692856,1.6871872
		c-0.4312592,0-0.9914246-0.2410126-0.8255539-1.0285034c0.1990433-0.9328766,0.9348679-1.1417084,1.8013992-1.2851028
		c0.9601517-0.1453857,1.3621368-0.2908707,1.6256332-0.4664307L96.5165329,107.5807419z M99.6722565,110.6496506h2.250145
		l0.9465637-4.4506378c0.1990509-0.9494629,0.7533188-2.0423126,2.5039597-2.0423126c0.2107315,0,0.4507446,0,0.6380997,0.0321732
		l0.4860229-2.2824249c-0.1424866-0.0155869-0.2849808-0.0311737-0.4293671-0.0311737
		c-1.3661346,0-2.0569763,0.8352509-2.7068939,1.7036743h-0.0331726l0.3141556-1.4783478h-2.152626L99.6722565,110.6496506z
		 M110.7046738,99.7851028h-2.2521439l-0.4918213,2.3154984h-1.155304l-0.3415298,1.6062469h1.1591949l-1.104538,5.1912689
		c-0.2342224,1.109436-0.0390701,1.8481598,1.9067383,1.8481598h0.2907791c0.3511963,0,0.7103195-0.0165863,1.0655441-0.0321732
		l0.3630219-1.7037735c-0.1639786,0.0165863-0.3279495,0.0321732-0.4723129,0.0321732
		c-0.9192123,0-0.8919296-0.1932526-0.7885132-0.6898651l0.9875336-4.6457901h1.3993149l0.3415298-1.6062469h-1.3992844
		L110.7046738,99.7851028z M124.3269119,104.7362518c0.4000626-1.8803406-0.6927872-2.8609772-2.365387-2.8609772
		c-1.3661423,0-2.1935959,0.9464645-2.5722046,1.3660355c-0.3844986-0.9162827-0.850914-1.3660355-2.0901718-1.3660355
		c-1.5066071,0-2.3301849,0.9161911-2.7400665,1.479248h-0.0331802l0.2694168-1.2539215h-2.1565475l-1.8150864,8.5490494h2.2502518
		l1.1065369-5.2068481c0.1951752-0.9319763,0.6928635-1.6716003,1.7525406-1.6716003
		c1.3505478,0,1.1339188,1.0119095,0.9816589,1.7349472l-1.0928726,5.1435013h2.2521439l1.087059-5.1269073
		c0.2146301-1.0119171,0.7727966-1.7515411,1.8989258-1.7515411c0.6615829,0,1.1339111,0.4176712,0.8626251,1.6871872
		l-1.1007462,5.1912613h2.2482529L124.3269119,104.7362518z M130.3085327,108.1427994
		c-0.306366,0.6108246-1.0187073,0.9318771-1.6471252,0.9318771c-1.8149796,0-1.6374207-1.4460754-1.563179-2.0891724h5.8664474
		l0.0839233-0.4010925c0.8314514-3.9060593-1.3309631-4.709137-3.0191193-4.709137
		c-3.7430954,0-4.7950974,3.2942429-5.0136337,4.3237381c-0.7494125,3.5187683,0.8528671,4.6750641,3.2649918,4.6750641
		c1.461731,0,3.3079987-0.6752701,4.342392-2.7312775H130.3085327z M127.4729385,105.5227432
		c0.3649139-1.1241302,1.0733719-1.7993011,2.133049-1.7993011c0.7240295,0,1.5184174,0.417572,1.3524475,1.7993011H127.4729385z
		 M142.281723,104.7362518c0.3980865-1.8803406-0.6947632-2.8609772-2.3634644-2.8609772
		c-1.6237335,0-2.4726715,0.9640503-2.8883514,1.479248h-0.0311737l0.2653961-1.2539215h-2.1526031l-1.8170166,8.5490494h2.2521515
		l1.0401917-4.9014893c0.2751923-1.302681,1.1905975-1.9769592,2.1878204-1.9769592
		c1.4304657,0,1.235321,1.0606766,1.1046143,1.6871872l-1.1046143,5.1912613h2.252121L142.281723,104.7362518z
		 M147.5588531,99.7851028h-2.2482605l-0.4918365,2.3154984h-1.1573029l-0.3395386,1.6062469h1.1553345l-1.1006775,5.1912689
		c-0.2342224,1.109436-0.0409698,1.8481598,1.9047241,1.8481598h0.2888794c0.3532257,0,0.7103424-0.0165863,1.069458-0.0321732
		l0.3591309-1.7037735c-0.1639709,0.0165863-0.3279572,0.0321732-0.4723358,0.0321732
		c-0.9152985,0-0.8899078-0.1932526-0.7845001-0.6898651l0.987442-4.6457901h1.3954163l0.3415375-1.6062469h-1.3954163
		L147.5588531,99.7851028z M57.0374031,123.4395065c0.6537895-3.085495-1.1182327-4.4993973-3.4152451-4.4993973
		c-2.3010139,0-4.6721687,1.4139023-5.3279572,4.4993973c-0.6556702,3.0855026,1.1183281,4.4994049,3.4153442,4.4994049
		C54.0065804,127.9389114,56.3817329,126.5250092,57.0374031,123.4395065z M54.7228012,123.4395065
		c-0.2322197,1.0929565-0.874321,2.6044769-2.6112709,2.6044769c-1.734951,0-1.734951-1.5115204-1.5027313-2.6044769
		c0.2322426-1.0928497,0.874321-2.6043701,2.6093941-2.6043701
		C54.9531212,120.8351364,54.9550209,122.3466568,54.7228012,123.4395065z M61.3973122,120.7716827h1.4617615l0.3415375-1.6071472
		h-1.4617653l0.0722427-0.3376389c0.1503067-0.7074509,0.2146339-0.947464,0.9894333-0.947464h0.6245117l0.3864021-1.8169861
		c-0.1892548-0.0165863-0.4898186-0.0321732-1.1514053-0.0321732c-1.5398026,0-2.650341,0.6751709-3.0250473,2.4433975
		l-0.146389,0.6908646h-1.237236l-0.3415337,1.6071472h1.237236l-1.4734535,6.9428024h2.2482529L61.3973122,120.7716827z
		 M73.4641266,118.2160721h3.4894943l0.4312592-2.0414124h-9.3852997l-0.4351654,2.0414124h3.4894867l-2.019928,9.4984131h2.4141235
		L73.4641266,118.2160721z M74.3403473,127.7144852h2.2482529l0.9465637-4.4516373
		c0.2010422-0.9484634,0.7533188-2.0413132,2.5058517-2.0413132c0.2088394,0,0.4508514,0,0.6362076,0.0321732l0.484024-2.2814255
		c-0.1404953-0.0165863-0.2829819-0.0321732-0.4273682-0.0321732c-1.3622437,0-2.0569992,0.8342514-2.7068939,1.702774h-0.0331802
		l0.3141556-1.4783478h-2.1526031L74.3403473,127.7144852z M88.4856491,121.4146805
		c0.4488525-2.1057587-1.6744995-2.4745712-2.8805618-2.4745712c-1.7506332,0-3.6475601,0.3688126-4.4614258,2.9878769h2.1721344
		c0.1698685-0.497612,0.5093765-1.1884766,1.6335068-1.1884766c0.5796509,0,1.467659,0.0487595,1.2666168,0.9962234
		c-0.1015244,0.4811249-0.5659409,0.6275101-0.928978,0.6742783l-2.0901794,0.3054581
		c-1.4754486,0.2098389-2.7165833,1.061676-3.0718079,2.7331772c-0.376709,1.7672272,0.7903824,2.4902649,2.074585,2.4902649
		c1.5261154,0,2.4004364-0.7064514,3.026947-1.237236c-0.054657,0.4830246-0.0488663,0.6108246-0.0058975,1.0128098h2.4258347
		l0.0722275-0.3376389c-0.2518082-0.0965195-0.4293671-0.3210449-0.2166367-1.3328629L88.4856491,121.4146805z
		 M85.6011963,124.6446762c-0.2245255,1.0440826-1.3720322,1.687088-2.3692627,1.687088
		c-0.435257,0-0.9953003-0.2410126-0.8255539-1.0285034c0.1971436-0.9318771,0.9308777-1.1397171,1.8013-1.2861023
		c0.9602509-0.1433868,1.3603592-0.2887726,1.6257324-0.4654388L85.6011963,124.6446762z M97.7596436,121.8001862
		c0.3981857-1.88134-0.6947632-2.8600769-2.3633652-2.8600769c-1.6257324,0-2.4726791,0.9630508-2.8883514,1.4773483h-0.0312576
		l0.2653732-1.2529221h-2.152626l-1.816864,8.5499496h2.252121l1.0401917-4.9013901
		c0.2751923-1.3027878,1.1904755-1.9779587,2.1878052-1.9779587c1.4305115,0,1.2353363,1.061676,1.104538,1.6880875
		l-1.104538,5.1912613h2.2521439L97.7596436,121.8001862z M106.5106354,121.768013
		c0.3357391-2.411232-1.5709763-2.8279037-3.2415771-2.8279037c-2.6678238,0-3.7978287,1.6061478-4.065239,2.8600769
		c-0.6771774,3.1987076,4.8556213,2.1213455,4.5531616,3.5519333c-0.0722504,0.3219528-0.4625397,0.8840179-1.6218185,0.8840179
		c-1.411026,0-1.7505646-0.5307922-1.598381-1.25383h-2.3106995c-0.4215546,2.2823257,1.5417938,2.956604,3.4855881,2.956604
		c1.3348618,0,3.8388367-0.449852,4.3696976-2.9400177c0.6673813-3.1509476-4.8907928-2.1702118-4.60392-3.5197601
		c0.0761642-0.369812,0.3357391-0.8362503,1.5573883-0.8362503c1.2236786,0,1.2919998,0.5786514,1.2725143,1.1251297H106.5106354z
		 M110.6792984,119.1645355h-2.152626l-2.5214462,11.8764648h2.2482529l0.9367752-4.4183655h0.0350723
		c0.1737671,0.4644394,0.5562668,1.3162766,2.1292419,1.3162766c2.5410233,0,4.0788345-2.2501526,4.5765457-4.5969238
		c0.6284103-2.9558029-0.7358322-4.4018784-2.6171646-4.4018784c-1.5085297,0-2.3029099,0.7874832-2.8629761,1.4617615h-0.0331726
		L110.6792984,119.1645355z M109.730835,123.6327591c0.2907715-1.3661346,0.9543533-2.7488632,2.4960556-2.7488632
		c1.4305878,0,1.6433258,1.269516,1.3564453,2.6190643c-0.2147293,1.0129166-0.9524536,2.5877914-2.3985367,2.5877914
		C109.7562408,126.0907516,109.4615402,124.9012756,109.730835,123.6327591z M125.3455963,123.4395065
		c0.6557846-3.085495-1.1162338-4.4993973-3.4152451-4.4993973c-2.2990189,0-4.6721725,1.4139023-5.3279572,4.4993973
		c-0.6556931,3.0855026,1.1183243,4.4994049,3.4153442,4.4994049
		C122.3167496,127.9389114,124.6899033,126.5250092,125.3455963,123.4395065z M123.0329895,123.4395065
		c-0.2322159,1.0929565-0.874321,2.6044769-2.6131668,2.6044769c-1.735054,0-1.735054-1.5115204-1.5027084-2.6044769
		c0.232193-1.0928497,0.874321-2.6043701,2.6092453-2.6043701
		C123.265213,120.8351364,123.265213,122.3466568,123.0329895,123.4395065z M125.611084,127.7144852h2.2521515l0.9445648-4.4516373
		c0.2029419-0.9484634,0.7553101-2.0413132,2.5078583-2.0413132c0.208725,0,0.4488373,0,0.634201,0.0321732l0.4860229-2.2814255
		c-0.1405945-0.0165863-0.2830505-0.0321732-0.4254761-0.0321732c-1.3681335,0-2.0608673,0.8342514-2.7107849,1.702774h-0.0331726
		l0.3180542-1.4783478h-2.1565323L125.611084,127.7144852z M136.6435089,116.8499298h-2.2502441l-0.491806,2.3146057h-1.1553192
		l-0.341507,1.6071472h1.1553802l-1.1007538,5.1912689c-0.2361145,1.109436-0.0390625,1.8481598,1.9028473,1.8481598h0.2907715
		c0.3552094,0,0.7103271-0.0165863,1.0675507-0.0331726l0.362915-1.7027817
		c-0.165863,0.0155945-0.3297424,0.0321808-0.4742126,0.0321808c-0.9152832,0-0.8918304-0.1931534-0.7845001-0.691864
		l0.9855194-4.6437912h1.3993225l0.3395386-1.6071472h-1.3972931L136.6435089,116.8499298z M145.0451813,121.4146805
		c0.4469452-2.1057587-1.6764069-2.4745712-2.8825684-2.4745712c-1.7505341,0-3.6475525,0.3688126-4.457428,2.9878769h2.1682129
		c0.1697693-0.497612,0.5093994-1.1884766,1.6335297-1.1884766c0.5796509,0,1.4675598,0.0487595,1.2685089,0.9962234
		c-0.1034088,0.4811249-0.5679474,0.6275101-0.9308777,0.6742783l-2.0901642,0.3054581
		c-1.4754639,0.2098389-2.7166901,1.061676-3.0718231,2.7331772c-0.3746948,1.7672272,0.786499,2.4902649,2.0744934,2.4902649
		c1.5262146,0,2.400528-0.7064514,3.026947-1.237236c-0.0546265,0.4830246-0.0487671,0.6108246-0.0057983,1.0128098h2.4258118
		l0.0722504-0.3376389c-0.2518005-0.0965195-0.4293671-0.3210449-0.2147064-1.3328629L145.0451813,121.4146805z
		 M142.1587219,124.6446762c-0.2244263,1.0440826-1.371933,1.687088-2.3692627,1.687088
		c-0.4351501,0-0.9914246-0.2410126-0.8254547-1.0285034c0.197052-0.9318771,0.9308777-1.1397171,1.7974091-1.2861023
		c0.9640503-0.1433868,1.3661346-0.2887726,1.6295319-0.4654388L142.1587219,124.6446762z M150.1602936,116.8499298h-2.2482452
		l-0.4918213,2.3146057h-1.1591949l-0.3376312,1.6071472h1.1552887l-1.104538,5.1912689
		c-0.2342224,1.109436-0.0370483,1.8481598,1.9086151,1.8481598h0.2888794c0.3532257,0,0.7103424-0.0165863,1.0675659-0.0331726
		l0.3610535-1.7027817c-0.1640015,0.0155945-0.3278809,0.0321808-0.4723663,0.0321808
		c-0.9152832,0-0.8899078-0.1931534-0.7844849-0.691864l0.9835358-4.6437912h1.3993073l0.3415375-1.6071472h-1.3953094
		L150.1602936,116.8499298z M152.1763306,119.1645355l-1.8129883,8.5499496h2.2482452l1.816925-8.5499496H152.1763306z
		 M155.0861664,116.0624466h-2.2501526l-0.4430542,2.0901718h2.2482605L155.0861664,116.0624466z M163.5326996,123.4395065
		c0.6557922-3.085495-1.1143341-4.4993973-3.4152374-4.4993973c-2.2990112,0-4.6721649,1.4139023-5.3279572,4.4993973
		c-0.6537781,3.0855026,1.116333,4.4994049,3.4153442,4.4994049
		C160.5057831,127.9389114,162.8770142,126.5250092,163.5326996,123.4395065z M161.2181091,123.4395065
		c-0.2322235,1.0929565-0.8743286,2.6044769-2.6092834,2.6044769c-1.7349396,0-1.7369385-1.5115204-1.5027313-2.6044769
		c0.2303314-1.0928497,0.8724213-2.6043701,2.6092987-2.6043701
		C161.4504242,120.8351364,161.4504242,122.3466568,161.2181091,123.4395065z M172.8029022,121.8001862
		c0.3980865-1.88134-0.6947632-2.8600769-2.3653717-2.8600769c-1.6237335,0-2.4707794,0.9630508-2.8864441,1.4773483h-0.0331879
		l0.2655029-1.2529221h-2.1526031l-1.8151093,8.5499496h2.2502441l1.0401917-4.9013901
		c0.2751923-1.3027878,1.1904755-1.9779587,2.1878204-1.9779587c1.4304657,0,1.239212,1.061676,1.1045227,1.6880875
		l-1.1045227,5.1912613h2.252121L172.8029022,121.8001862z M174.5222626,25.3643589h1.572998v-5.8299675h2.1438293v-1.3222713
		h-5.8606567v1.3222713h2.1438293V25.3643589z M179.0587616,25.3643589h1.4725494v-5.0185986h0.0204926l1.752533,5.0185986
		h1.2128601l1.7526245-5.0688591h0.0204926v5.0688591h1.4724579v-7.1522388h-2.2140808l-1.5827637,4.9185753h-0.0204926
		l-1.6725006-4.9185753h-2.2141724V25.3643589z M97.4142075,25.3643589l16.0735016,14.3394527L96.7155533,64.282402
		l27.9528656-15.0205231l17.4708176,15.0205231V39.7038116l26.5535583-14.3394527h-27.9508667V0.1018l-18.1694794,25.262558
		H97.4142075L97.4142075,25.3643589z"/>
	<path fill="#D90D0D" d="M100.7580338,28.3474216H26.5318336l-3.8388062,5.3581524h84.071106L100.7580338,28.3474216z
		 M111.2946548,37.7473221H19.7987404l-3.8388052,5.3581543h95.2052612h0.0012207l2.3212891-3.4016724L111.2946548,37.7473221z
		 M9.2288561,52.5053177h95.5232544l3.6556396-5.3571167H13.063817L9.2288561,52.5053177z M2.4958236,61.9063187h95.8411255
		l3.6563721-5.3582153H6.3327379L2.4958236,61.9063187z"/>
</g>
</svg>
